<svg width="1024" height="1024" viewBox="0 0 1024 1024" fill="none" xmlns="http://www.w3.org/2000/svg">
  <defs>
    <linearGradient id="bg" x1="112" y1="88" x2="912" y2="936" gradientUnits="userSpaceOnUse">
      <stop offset="0" stop-color="#1D2029"/>
      <stop offset="0.55" stop-color="#171A20"/>
      <stop offset="1" stop-color="#0F1115"/>
    </linearGradient>
    <linearGradient id="stroke" x1="296" y1="244" x2="759" y2="734" gradientUnits="userSpaceOnUse">
      <stop offset="0" stop-color="#A3BAFF"/>
      <stop offset="1" stop-color="#8EA8FF"/>
    </linearGradient>
    <linearGradient id="star" x1="626" y1="178" x2="764" y2="348" gradientUnits="userSpaceOnUse">
      <stop offset="0" stop-color="#FBBF24"/>
      <stop offset="1" stop-color="#D68D00"/>
    </linearGradient>
    <filter id="glow" x="-24%" y="-24%" width="148%" height="148%">
      <feGaussianBlur stdDeviation="12" result="blur"/>
      <feMerge>
        <feMergeNode in="blur"/>
        <feMergeNode in="SourceGraphic"/>
      </feMerge>
    </filter>
  </defs>

  <rect x="36" y="36" width="952" height="952" rx="220" fill="url(#bg)"/>
  <circle cx="724" cy="270" r="160" fill="#1A2240"/>
  <circle cx="724" cy="270" r="116" stroke="#1E2D5C" stroke-width="8"/>
  <circle cx="238" cy="792" r="116" fill="#141720"/>

  <path
    d="M288 270H628C687.647 270 736 318.353 736 378V574C736 633.647 687.647 682 628 682H471L368 789"
    stroke="url(#stroke)"
    stroke-width="50"
    stroke-linecap="round"
    stroke-linejoin="round"
  />

  <path
    d="M258 420H633"
    stroke="#8EA8FF"
    stroke-width="18"
    stroke-linecap="round"
    opacity="0.96"
  />
  <path
    d="M258 510H540"
    stroke="#7A97F0"
    stroke-width="18"
    stroke-linecap="round"
    opacity="0.86"
  />

  <path
    d="M696 166L725 232L796 237L742 284L759 355L696 315L633 355L650 284L596 237L667 232L696 166Z"
    fill="url(#star)"
    stroke="#FFFBEB"
    stroke-width="10"
    stroke-linejoin="round"
    filter="url(#glow)"
  />
</svg>
