<svg width="1024" height="1024" viewBox="0 0 1024 1024" fill="none" xmlns="http://www.w3.org/2000/svg">
  <defs>
    <linearGradient id="bg" x1="128" y1="96" x2="896" y2="928" gradientUnits="userSpaceOnUse">
      <stop offset="0" stop-color="#101A2B"/>
      <stop offset="1" stop-color="#050A14"/>
    </linearGradient>
    <linearGradient id="stroke" x1="296" y1="244" x2="759" y2="734" gradientUnits="userSpaceOnUse">
      <stop offset="0" stop-color="#E7F7FF"/>
      <stop offset="1" stop-color="#8CE7FF"/>
    </linearGradient>
    <linearGradient id="star" x1="0" y1="0" x2="1" y2="1">
      <stop offset="0" stop-color="#FFF3B0"/>
      <stop offset="1" stop-color="#FFC83D"/>
    </linearGradient>
    <filter id="glow" x="-20%" y="-20%" width="140%" height="140%">
      <feGaussianBlur stdDeviation="14" result="blur"/>
      <feMerge>
        <feMergeNode in="blur"/>
        <feMergeNode in="SourceGraphic"/>
      </feMerge>
    </filter>
  </defs>

  <rect x="36" y="36" width="952" height="952" rx="220" fill="url(#bg)"/>
  <circle cx="724" cy="270" r="160" fill="#0E1F36"/>
  <circle cx="724" cy="270" r="116" stroke="#1E3556" stroke-width="8"/>
  <circle cx="238" cy="792" r="116" fill="#0A1627"/>

  <path
    d="M288 270H628C687.647 270 736 318.353 736 378V574C736 633.647 687.647 682 628 682H471L368 789"
    stroke="url(#stroke)"
    stroke-width="50"
    stroke-linecap="round"
    stroke-linejoin="round"
  />

  <path
    d="M258 420H633"
    stroke="#74E4FF"
    stroke-width="18"
    stroke-linecap="round"
    opacity="0.9"
  />
  <path
    d="M258 510H540"
    stroke="#74E4FF"
    stroke-width="18"
    stroke-linecap="round"
    opacity="0.78"
  />

  <path
    d="M696 166L725 232L796 237L742 284L759 355L696 315L633 355L650 284L596 237L667 232L696 166Z"
    fill="url(#star)"
    stroke="#FFF8D6"
    stroke-width="10"
    stroke-linejoin="round"
    filter="url(#glow)"
  />
</svg>
